{
  "accessors": [
    {
      "bufferView": 2,
      "componentType": 5126,
      "count": 559,
      "max": [0.9999997019767761, 1.0, 0.9999994039535522],
      "min": [-0.9999990463256836, -1.0, -0.9999987483024597],
      "type": "VEC3"
    },
    {
      "bufferView": 2,
      "byteOffset": 6708,
      "componentType": 5126,
      "count": 559,
      "max": [1.0, 1.0, 1.0],
      "min": [-1.0, -1.0, -1.0],
      "type": "VEC3"
    },
    {
      "bufferView": 1,
      "componentType": 5126,
      "count": 559,
      "max": [1.0000001192092896, 1.0],
      "min": [0.0, 0.0],
      "type": "VEC2"
    },
    {
      "bufferView": 0,
      "componentType": 5125,
      "count": 2880,
      "type": "SCALAR"
    },
    {
      "bufferView": 2,
      "byteOffset": 13416,
      "componentType": 5126,
      "count": 3832,
      "max": [0.9954133033752441, 1.003151774406433, 0.99309903383255],
      "min": [-0.9954133033752441, -1.003151774406433, -0.9930992126464844],
      "type": "VEC3"
    },
    {
      "bufferView": 2,
      "byteOffset": 59400,
      "componentType": 5126,
      "count": 3832,
      "max": [0.9998573660850525, 1.0, 1.0],
      "min": [-0.9998573660850525, -1.0, -1.0],
      "type": "VEC3"
    },
    {
      "bufferView": 0,
      "byteOffset": 11520,
      "componentType": 5125,
      "count": 5760,
      "type": "SCALAR"
    },
    {
      "bufferView": 2,
      "byteOffset": 105384,
      "componentType": 5126,
      "count": 176,
      "max": [1.1549447774887085, 1.0344865322113037, 1.0693933963775635],
      "min": [-0.3836843967437744, -1.1150524616241455, -0.8774555325508118],
      "type": "VEC3"
    },
    {
      "bufferView": 2,
      "byteOffset": 107496,
      "componentType": 5126,
      "count": 176,
      "max": [0.9972347617149353, 1.0, 0.9922462105751038],
      "min": [-0.9972347617149353, -1.0, -0.9922462105751038],
      "type": "VEC3"
    },
    {
      "bufferView": 1,
      "byteOffset": 4472,
      "componentType": 5126,
      "count": 176,
      "max": [1.0, 0.47238200902938843],
      "min": [0.0, 0.0],
      "type": "VEC2"
    },
    {
      "bufferView": 0,
      "byteOffset": 34560,
      "componentType": 5125,
      "count": 480,
      "type": "SCALAR"
    },
    {
      "bufferView": 2,
      "byteOffset": 109608,
      "componentType": 5126,
      "count": 176,
      "max": [1.2021198272705078, 0.6462969779968262, 1.1956113576889038],
      "min": [-0.5186901092529297, -1.2492091655731201, -0.999149739742279],
      "type": "VEC3"
    },
    {
      "bufferView": 2,
      "byteOffset": 111720,
      "componentType": 5126,
      "count": 176,
      "max": [0.9891318082809448, 0.999683141708374, 0.9830684065818787],
      "min": [-0.9891308546066284, -0.999683141708374, -0.9830670356750488],
      "type": "VEC3"
    },
    {
      "bufferView": 1,
      "byteOffset": 5880,
      "componentType": 5126,
      "count": 176,
      "max": [1.0, 0.47238200902938843],
      "min": [0.0, 0.0],
      "type": "VEC2"
    },
    {
      "bufferView": 0,
      "byteOffset": 36480,
      "componentType": 5125,
      "count": 480,
      "type": "SCALAR"
    },
    {
      "bufferView": 2,
      "byteOffset": 113832,
      "componentType": 5126,
      "count": 176,
      "max": [1.1493266820907593, 1.2877033948898315, 1.3804137706756592],
      "min": [-1.138380765914917, -1.2620681524276733, -1.3360580205917358],
      "type": "VEC3"
    },
    {
      "bufferView": 2,
      "byteOffset": 115944,
      "componentType": 5126,
      "count": 176,
      "max": [0.9579542279243469, 0.9976492524147034, 0.9845787286758423],
      "min": [-0.9579570293426514, -0.9976487755775452, -0.9845781326293945],
      "type": "VEC3"
    },
    {
      "bufferView": 1,
      "byteOffset": 7288,
      "componentType": 5126,
      "count": 176,
      "max": [1.0, 0.47238200902938843],
      "min": [0.0, 0.0],
      "type": "VEC2"
    },
    {
      "bufferView": 0,
      "byteOffset": 38400,
      "componentType": 5125,
      "count": 480,
      "type": "SCALAR"
    },
    {
      "bufferView": 2,
      "byteOffset": 118056,
      "componentType": 5126,
      "count": 176,
      "max": [0.8039317727088928, 1.4798636436462402, 0.9273871779441833],
      "min": [-1.217963457107544, -1.090253472328186, -1.5845078229904175],
      "type": "VEC3"
    },
    {
      "bufferView": 2,
      "byteOffset": 120168,
      "componentType": 5126,
      "count": 176,
      "max": [0.9867385029792786, 0.9537431597709656, 0.9982689023017883],
      "min": [-0.9867387413978577, -0.953742504119873, -0.9982690215110779],
      "type": "VEC3"
    },
    {
      "bufferView": 1,
      "byteOffset": 8696,
      "componentType": 5126,
      "count": 176,
      "max": [1.0, 0.47238200902938843],
      "min": [0.0, 0.0],
      "type": "VEC2"
    },
    {
      "bufferView": 0,
      "byteOffset": 40320,
      "componentType": 5125,
      "count": 480,
      "type": "SCALAR"
    },
    {
      "bufferView": 2,
      "byteOffset": 122280,
      "componentType": 5126,
      "count": 176,
      "max": [1.0642554759979248, 0.9214720726013184, 0.8592929244041443],
      "min": [-1.3374677896499634, -1.1355700492858887, -1.2162437438964844],
      "type": "VEC3"
    },
    {
      "bufferView": 2,
      "byteOffset": 124392,
      "componentType": 5126,
      "count": 176,
      "max": [0.9764900207519531, 0.9890199899673462, 0.945601761341095],
      "min": [-0.9764899611473083, -0.9890186786651611, -0.9455982446670532],
      "type": "VEC3"
    },
    {
      "bufferView": 1,
      "byteOffset": 10104,
      "componentType": 5126,
      "count": 176,
      "max": [1.0, 0.47238200902938843],
      "min": [0.0, 0.0],
      "type": "VEC2"
    },
    {
      "bufferView": 0,
      "byteOffset": 42240,
      "componentType": 5125,
      "count": 480,
      "type": "SCALAR"
    },
    {
      "bufferView": 2,
      "byteOffset": 126504,
      "componentType": 5126,
      "count": 176,
      "max": [1.4780312776565552, 1.6391065120697021, 1.103274941444397],
      "min": [-0.5453835725784302, -1.26981520652771, -1.7663336992263794],
      "type": "VEC3"
    },
    {
      "bufferView": 2,
      "byteOffset": 128616,
      "componentType": 5126,
      "count": 176,
      "max": [0.9955281019210815, 0.9887819886207581, 0.9894468188285828],
      "min": [-0.9955278635025024, -0.9887829422950745, -0.9894463419914246],
      "type": "VEC3"
    },
    {
      "bufferView": 1,
      "byteOffset": 11512,
      "componentType": 5126,
      "count": 176,
      "max": [1.0, 0.47238200902938843],
      "min": [0.0, 0.0],
      "type": "VEC2"
    },
    {
      "bufferView": 0,
      "byteOffset": 44160,
      "componentType": 5125,
      "count": 480,
      "type": "SCALAR"
    },
    {
      "bufferView": 2,
      "byteOffset": 130728,
      "componentType": 5126,
      "count": 176,
      "max": [1.6498445272445679, 1.1192541122436523, 1.2111636400222778],
      "min": [-1.5078288316726685, -1.5478973388671875, -1.2605338096618652],
      "type": "VEC3"
    },
    {
      "bufferView": 2,
      "byteOffset": 132840,
      "componentType": 5126,
      "count": 176,
      "max": [0.9829941987991333, 0.9961005449295044, 0.9777544140815735],
      "min": [-0.9829939603805542, -0.9961012005805969, -0.9777552485466003],
      "type": "VEC3"
    },
    {
      "bufferView": 1,
      "byteOffset": 12920,
      "componentType": 5126,
      "count": 176,
      "max": [1.0, 0.47238200902938843],
      "min": [0.0, 0.0],
      "type": "VEC2"
    },
    {
      "bufferView": 0,
      "byteOffset": 46080,
      "componentType": 5125,
      "count": 480,
      "type": "SCALAR"
    },
    {
      "bufferView": 2,
      "byteOffset": 134952,
      "componentType": 5126,
      "count": 176,
      "max": [1.2102200984954834, 1.8987001180648804, 1.693582534790039],
      "min": [-1.4722071886062622, -1.6408264636993408, -1.438823938369751],
      "type": "VEC3"
    },
    {
      "bufferView": 2,
      "byteOffset": 137064,
      "componentType": 5126,
      "count": 176,
      "max": [0.973567008972168, 0.9581907987594604, 0.9838432669639587],
      "min": [-0.9735672473907471, -0.9581919312477112, -0.9838425517082214],
      "type": "VEC3"
    },
    {
      "bufferView": 1,
      "byteOffset": 14328,
      "componentType": 5126,
      "count": 176,
      "max": [1.0, 0.47238200902938843],
      "min": [0.0, 0.0],
      "type": "VEC2"
    },
    {
      "bufferView": 0,
      "byteOffset": 48000,
      "componentType": 5125,
      "count": 480,
      "type": "SCALAR"
    },
    {
      "bufferView": 3,
      "componentType": 5126,
      "count": 500,
      "max": [20.83333396911621],
      "min": [0.0416666679084301],
      "type": "SCALAR"
    },
    {
      "bufferView": 4,
      "componentType": 5126,
      "count": 500,
      "max": [0.0, 0.9999950528144836, -0.0, 1.0],
      "min": [0.0, -0.9999950528144836, -0.0, 0.003147585317492485],
      "type": "VEC4"
    },
    {
      "bufferView": 3,
      "byteOffset": 2000,
      "componentType": 5126,
      "count": 500,
      "max": [20.83333396911621],
      "min": [0.0416666679084301],
      "type": "SCALAR"
    },
    {
      "bufferView": 4,
      "byteOffset": 8000,
      "componentType": 5126,
      "count": 500,
      "max": [0.4999975264072418, 0.0, 0.4999975264072418, 1.0],
      "min": [
        -0.4999975264072418, -0.9999901056289673, -0.4999975264072418,
        9.908591891871765e-6
      ],
      "type": "VEC4"
    },
    {
      "bufferView": 3,
      "byteOffset": 4000,
      "componentType": 5126,
      "count": 500,
      "max": [20.83333396911621],
      "min": [0.0416666679084301],
      "type": "SCALAR"
    },
    {
      "bufferView": 4,
      "byteOffset": 16000,
      "componentType": 5126,
      "count": 500,
      "max": [0.0, 0.9999950528144836, -0.0, 1.0],
      "min": [0.0, -0.9999950528144836, -0.0, 0.0031477920711040497],
      "type": "VEC4"
    },
    {
      "bufferView": 3,
      "byteOffset": 6000,
      "componentType": 5126,
      "count": 500,
      "max": [20.83333396911621],
      "min": [0.0416666679084301],
      "type": "SCALAR"
    },
    {
      "bufferView": 4,
      "byteOffset": 24000,
      "componentType": 5126,
      "count": 500,
      "max": [0.4999975264072418, 0.0, 0.4999975264072418, 1.0],
      "min": [
        -0.4999975264072418, -0.9999901056289673, -0.4999975264072418,
        9.908591891871765e-6
      ],
      "type": "VEC4"
    },
    {
      "bufferView": 3,
      "byteOffset": 8000,
      "componentType": 5126,
      "count": 500,
      "max": [20.83333396911621],
      "min": [0.0416666679084301],
      "type": "SCALAR"
    },
    {
      "bufferView": 4,
      "byteOffset": 32000,
      "componentType": 5126,
      "count": 500,
      "max": [0.0, 0.9999950528144836, -0.0, 1.0],
      "min": [0.0, -0.9999950528144836, -0.0, 0.0031477920711040497],
      "type": "VEC4"
    },
    {
      "bufferView": 3,
      "byteOffset": 10000,
      "componentType": 5126,
      "count": 500,
      "max": [20.83333396911621],
      "min": [0.0416666679084301],
      "type": "SCALAR"
    },
    {
      "bufferView": 4,
      "byteOffset": 40000,
      "componentType": 5126,
      "count": 500,
      "max": [0.4999975264072418, 0.0, 0.4999975264072418, 1.0],
      "min": [
        -0.4999975264072418, -0.9999901056289673, -0.4999975264072418,
        9.908591891871765e-6
      ],
      "type": "VEC4"
    },
    {
      "bufferView": 3,
      "byteOffset": 12000,
      "componentType": 5126,
      "count": 500,
      "max": [20.83333396911621],
      "min": [0.0416666679084301],
      "type": "SCALAR"
    },
    {
      "bufferView": 4,
      "byteOffset": 48000,
      "componentType": 5126,
      "count": 500,
      "max": [0.0, 0.9999950528144836, -0.0, 1.0],
      "min": [0.0, -0.9999950528144836, -0.0, 0.0031477920711040497],
      "type": "VEC4"
    },
    {
      "bufferView": 3,
      "byteOffset": 14000,
      "componentType": 5126,
      "count": 500,
      "max": [20.83333396911621],
      "min": [0.0416666679084301],
      "type": "SCALAR"
    },
    {
      "bufferView": 4,
      "byteOffset": 56000,
      "componentType": 5126,
      "count": 500,
      "max": [0.4999975264072418, 0.0, 0.4999975264072418, 1.0],
      "min": [
        -0.4999975264072418, -0.9999901056289673, -0.4999975264072418,
        9.908591891871765e-6
      ],
      "type": "VEC4"
    },
    {
      "bufferView": 3,
      "byteOffset": 16000,
      "componentType": 5126,
      "count": 500,
      "max": [20.83333396911621],
      "min": [0.0416666679084301],
      "type": "SCALAR"
    },
    {
      "bufferView": 4,
      "byteOffset": 64000,
      "componentType": 5126,
      "count": 500,
      "max": [0.0, 0.9999950528144836, -0.0, 1.0],
      "min": [0.0, -0.9999950528144836, -0.0, 0.0031477920711040497],
      "type": "VEC4"
    }
  ],
  "animations": [
    {
      "channels": [
        {
          "sampler": 0,
          "target": {
            "node": 3,
            "path": "rotation"
          }
        },
        {
          "sampler": 1,
          "target": {
            "node": 7,
            "path": "rotation"
          }
        },
        {
          "sampler": 2,
          "target": {
            "node": 9,
            "path": "rotation"
          }
        },
        {
          "sampler": 3,
          "target": {
            "node": 11,
            "path": "rotation"
          }
        },
        {
          "sampler": 4,
          "target": {
            "node": 13,
            "path": "rotation"
          }
        },
        {
          "sampler": 5,
          "target": {
            "node": 15,
            "path": "rotation"
          }
        },
        {
          "sampler": 6,
          "target": {
            "node": 17,
            "path": "rotation"
          }
        },
        {
          "sampler": 7,
          "target": {
            "node": 19,
            "path": "rotation"
          }
        },
        {
          "sampler": 8,
          "target": {
            "node": 21,
            "path": "rotation"
          }
        }
      ],
      "name": "Animation",
      "samplers": [
        {
          "input": 39,
          "interpolation": "LINEAR",
          "output": 40
        },
        {
          "input": 41,
          "interpolation": "LINEAR",
          "output": 42
        },
        {
          "input": 43,
          "interpolation": "LINEAR",
          "output": 44
        },
        {
          "input": 45,
          "interpolation": "LINEAR",
          "output": 46
        },
        {
          "input": 47,
          "interpolation": "LINEAR",
          "output": 48
        },
        {
          "input": 49,
          "interpolation": "LINEAR",
          "output": 50
        },
        {
          "input": 51,
          "interpolation": "LINEAR",
          "output": 52
        },
        {
          "input": 53,
          "interpolation": "LINEAR",
          "output": 54
        },
        {
          "input": 55,
          "interpolation": "LINEAR",
          "output": 56
        }
      ]
    }
  ],
  "asset": {
    "extras": {
      "author": "tamminen (https://sketchfab.com/tamminen)",
      "license": "SKETCHFAB Standard (https://sketchfab.com/licenses)",
      "source": "https://sketchfab.com/3d-models/hologram-hex-planet-earth-animated-98a7e791f2ac4079a89782e999adb288",
      "title": "Hologram Hex Planet Earth - Animated"
    },
    "generator": "Sketchfab-15.70.0",
    "version": "2.0"
  },
  "bufferViews": [
    {
      "buffer": 0,
      "byteLength": 49920,
      "name": "floatBufferViews",
      "target": 34963
    },
    {
      "buffer": 0,
      "byteLength": 15736,
      "byteOffset": 49920,
      "byteStride": 8,
      "name": "floatBufferViews",
      "target": 34962
    },
    {
      "buffer": 0,
      "byteLength": 139176,
      "byteOffset": 65656,
      "byteStride": 12,
      "name": "floatBufferViews",
      "target": 34962
    },
    {
      "buffer": 0,
      "byteLength": 18000,
      "byteOffset": 204832,
      "name": "floatBufferViews"
    },
    {
      "buffer": 0,
      "byteLength": 72000,
      "byteOffset": 222832,
      "byteStride": 16,
      "name": "floatBufferViews"
    }
  ],
  "buffers": [
    {
      "byteLength": 294832,
      "uri": "scene.bin"
    }
  ],
  "images": [
    {
      "uri": "textures/earth_holo.001_baseColor.png"
    }
  ],
  "materials": [
    {
      "doubleSided": true,
      "name": "material_0",
      "pbrMetallicRoughness": {
        "metallicFactor": 0.0,
        "roughnessFactor": 0.6
      }
    },
    {
      "alphaMode": "BLEND",
      "doubleSided": true,
      "name": "earth_holo.001",
      "pbrMetallicRoughness": {
        "baseColorTexture": {
          "index": 0
        },
        "metallicFactor": 0.0,
        "roughnessFactor": 0.5
      }
    },
    {
      "doubleSided": true,
      "name": "satellite",
      "pbrMetallicRoughness": {
        "baseColorFactor": [0.8, 0.8, 0.8, 1.0],
        "metallicFactor": 0.0,
        "roughnessFactor": 0.5
      }
    }
  ],
  "meshes": [
    {
      "name": "Object_0",
      "primitives": [
        {
          "attributes": {
            "NORMAL": 1,
            "POSITION": 0,
            "TEXCOORD_0": 2
          },
          "indices": 3,
          "material": 1,
          "mode": 4
        }
      ]
    },
    {
      "name": "Object_1",
      "primitives": [
        {
          "attributes": {
            "NORMAL": 5,
            "POSITION": 4
          },
          "indices": 6,
          "material": 0,
          "mode": 4
        }
      ]
    },
    {
      "name": "Object_2",
      "primitives": [
        {
          "attributes": {
            "NORMAL": 8,
            "POSITION": 7,
            "TEXCOORD_0": 9
          },
          "indices": 10,
          "material": 2,
          "mode": 4
        }
      ]
    },
    {
      "name": "Object_3",
      "primitives": [
        {
          "attributes": {
            "NORMAL": 12,
            "POSITION": 11,
            "TEXCOORD_0": 13
          },
          "indices": 14,
          "material": 2,
          "mode": 4
        }
      ]
    },
    {
      "name": "Object_4",
      "primitives": [
        {
          "attributes": {
            "NORMAL": 16,
            "POSITION": 15,
            "TEXCOORD_0": 17
          },
          "indices": 18,
          "material": 2,
          "mode": 4
        }
      ]
    },
    {
      "name": "Object_5",
      "primitives": [
        {
          "attributes": {
            "NORMAL": 20,
            "POSITION": 19,
            "TEXCOORD_0": 21
          },
          "indices": 22,
          "material": 2,
          "mode": 4
        }
      ]
    },
    {
      "name": "Object_6",
      "primitives": [
        {
          "attributes": {
            "NORMAL": 24,
            "POSITION": 23,
            "TEXCOORD_0": 25
          },
          "indices": 26,
          "material": 2,
          "mode": 4
        }
      ]
    },
    {
      "name": "Object_7",
      "primitives": [
        {
          "attributes": {
            "NORMAL": 28,
            "POSITION": 27,
            "TEXCOORD_0": 29
          },
          "indices": 30,
          "material": 2,
          "mode": 4
        }
      ]
    },
    {
      "name": "Object_8",
      "primitives": [
        {
          "attributes": {
            "NORMAL": 32,
            "POSITION": 31,
            "TEXCOORD_0": 33
          },
          "indices": 34,
          "material": 2,
          "mode": 4
        }
      ]
    },
    {
      "name": "Object_9",
      "primitives": [
        {
          "attributes": {
            "NORMAL": 36,
            "POSITION": 35,
            "TEXCOORD_0": 37
          },
          "indices": 38,
          "material": 2,
          "mode": 4
        }
      ]
    }
  ],
  "nodes": [
    {
      "children": [1],
      "matrix": [
        1.0, 0.0, 0.0, 0.0, 0.0, 2.220446049250313e-16, -1.0, 0.0, 0.0, 1.0,
        2.220446049250313e-16, 0.0, 0.0, 0.0, 0.0, 1.0
      ],
      "name": "Sketchfab_model"
    },
    {
      "children": [2],
      "name": "root"
    },
    {
      "children": [3, 7, 9, 11, 13, 15, 17, 19, 21],
      "matrix": [
        1.0, 0.0, 0.0, 0.0, 0.0, 2.220446049250313e-16, 1.0, 0.0, 0.0, -1.0,
        2.220446049250313e-16, 0.0, 0.0, 0.0, 0.0, 1.0
      ],
      "name": "GLTF_SceneRootNode"
    },
    {
      "children": [4, 5],
      "name": "earth_Holo.001_1"
    },
    {
      "mesh": 0,
      "name": "Object_4"
    },
    {
      "children": [6],
      "matrix": [
        -0.7236022816859289, 0.0, -0.6902171672299359, 0.0, 0.0, 1.0, 0.0, 0.0,
        0.6902171672299359, 0.0, -0.7236022816859289, 0.0, 0.0, 0.0, 0.0, 1.0
      ],
      "name": "Icosphere_0"
    },
    {
      "mesh": 1,
      "name": "Object_6"
    },
    {
      "children": [8],
      "name": "satellites_2"
    },
    {
      "mesh": 2,
      "name": "Object_8"
    },
    {
      "children": [10],
      "name": "satellites.001_3"
    },
    {
      "mesh": 3,
      "name": "Object_10"
    },
    {
      "children": [12],
      "name": "satellites.002_4"
    },
    {
      "mesh": 4,
      "name": "Object_12"
    },
    {
      "children": [14],
      "name": "satellites.003_5"
    },
    {
      "mesh": 5,
      "name": "Object_14"
    },
    {
      "children": [16],
      "name": "satellites.004_6"
    },
    {
      "mesh": 6,
      "name": "Object_16"
    },
    {
      "children": [18],
      "name": "satellites.005_7"
    },
    {
      "mesh": 7,
      "name": "Object_18"
    },
    {
      "children": [20],
      "name": "satellites.006_8"
    },
    {
      "mesh": 8,
      "name": "Object_20"
    },
    {
      "children": [22],
      "name": "satellites.007_9"
    },
    {
      "mesh": 9,
      "name": "Object_22"
    }
  ],
  "samplers": [
    {
      "magFilter": 9729,
      "minFilter": 9987,
      "wrapS": 10497,
      "wrapT": 10497
    }
  ],
  "scene": 0,
  "scenes": [
    {
      "name": "Sketchfab_Scene",
      "nodes": [0]
    }
  ],
  "textures": [
    {
      "sampler": 0,
      "source": 0
    }
  ]
}
